<svg id="Livello_1" data-name="Livello 1" xmlns="http://www.w3.org/2000/svg" viewBox="0 0 512 256"><defs><style>.cls-1{fill:#000000;}</style></defs><path class="cls-1" d="M329.9,192a21.32,21.32,0,0,0-29.14-7.81l-23.43,13.53V170.67a21.33,21.33,0,1,0-42.66,0v27.05l-23.43-13.53a21.33,21.33,0,0,0-21.33,36.95l23.42,13.53-23.42,13.52a21.33,21.33,0,1,0,21.33,36.95l23.43-13.52v27.05a21.33,21.33,0,1,0,42.66,0V271.62l23.43,13.52a21.33,21.33,0,1,0,21.33-36.95l-23.42-13.52,23.42-13.53A21.34,21.34,0,0,0,329.9,192Z" transform="translate(0 -149.33)"/><path class="cls-1" d="M150.66,192a21.33,21.33,0,0,0-29.15-7.81L98.09,197.72V170.67a21.34,21.34,0,1,0-42.67,0v27.05L32,184.19a21.33,21.33,0,1,0-21.33,36.95l23.42,13.53L10.67,248.19A21.33,21.33,0,1,0,32,285.14l23.42-13.52v27.05a21.34,21.34,0,0,0,42.67,0V271.62l23.42,13.52a21.33,21.33,0,1,0,21.34-36.95l-23.43-13.52,23.43-13.53A21.34,21.34,0,0,0,150.66,192Z" transform="translate(0 -149.33)"/><path class="cls-1" d="M435.24,157.9A76.77,76.77,0,1,0,512,234.67,76.86,76.86,0,0,0,435.24,157.9Zm38.9,60.5L432.56,260a6.4,6.4,0,0,1-9,0l-20.79-20.79a6.4,6.4,0,0,1,9-9.05L428,246.41l37.06-37.06a6.4,6.4,0,1,1,9,9.05Z" transform="translate(0 -149.33)"/><path class="cls-1" d="M128,362.67H21.33a21.33,21.33,0,1,0,0,42.66H128a21.33,21.33,0,1,0,0-42.66Z" transform="translate(0 -149.33)"/><path class="cls-1" d="M309.33,362.67H202.67a21.33,21.33,0,1,0,0,42.66H309.33a21.33,21.33,0,1,0,0-42.66Z" transform="translate(0 -149.33)"/><path class="cls-1" d="M490.67,362.67H384a21.33,21.33,0,0,0,0,42.66H490.67a21.33,21.33,0,1,0,0-42.66Z" transform="translate(0 -149.33)"/></svg>