<?xml version="1.0"?>
<svg xmlns="http://www.w3.org/2000/svg" xmlns:xlink="http://www.w3.org/1999/xlink" xmlns:svgjs="http://svgjs.com/svgjs" version="1.1" width="512" height="512" x="0" y="0" viewBox="0 0 512 512" style="enable-background:new 0 0 512 512" xml:space="preserve"><g><linearGradient xmlns="http://www.w3.org/2000/svg" id="SVGID_1_" gradientUnits="userSpaceOnUse" x1="231.5" x2="231.5" y1="452" y2="60"><stop offset="0" stop-color="#ffe59a"/><stop offset="1" stop-color="#ffffd5"/></linearGradient><linearGradient xmlns="http://www.w3.org/2000/svg" id="SVGID_2_" gradientUnits="userSpaceOnUse" x1="256" x2="256" y1="512" y2="0"><stop stop-opacity="1" stop-color="#ffab00" offset="0"/><stop stop-opacity="1" stop-color="#ffc511" offset="1"/></linearGradient><g xmlns="http://www.w3.org/2000/svg"><g><g><path d="m346 60h-244v392h244c8.284 0 15-6.716 15-15v-362c0-8.284-6.716-15-15-15z" fill="url(#SVGID_1_)" data-original="url(#SVGID_1_)" style=""/></g></g><g><g><path d="m466 211h-75v-15c0-5.532-3.045-10.615-7.922-13.225-4.878-2.61-10.796-2.324-15.398.744l-90 60c-4.173 2.782-6.68 7.466-6.68 12.481s2.506 9.699 6.68 12.481l90 60c4.614 3.076 10.534 3.348 15.398.744 4.877-2.61 7.922-7.693 7.922-13.225v-15h75c8.284 0 15-6.716 15-15v-60c0-8.284-6.716-15-15-15zm-231.229-208.168c-3.911-2.82-8.939-3.587-13.514-2.062l-180 60c-6.125 2.042-10.257 7.774-10.257 14.23v362c0 6.457 4.131 12.188 10.257 14.23l180 60c4.614 1.539 9.64.731 13.514-2.062 3.911-2.818 6.229-7.346 6.229-12.168v-482c0-4.821-2.318-9.349-6.229-12.168zm-68.771 268.168c-8.284 0-15-6.716-15-15s6.716-15 15-15 15 6.716 15 15-6.716 15-15 15z" fill="url(#SVGID_2_)" data-original="url(#SVGID_2_)" style=""/></g></g></g></g></svg>
