<?xml version="1.0"?>
<svg xmlns="http://www.w3.org/2000/svg" xmlns:xlink="http://www.w3.org/1999/xlink" xmlns:svgjs="http://svgjs.com/svgjs" version="1.1" width="512" height="512" x="0" y="0" viewBox="0 0 512 512" style="enable-background:new 0 0 512 512" xml:space="preserve" class=""><g><g xmlns="http://www.w3.org/2000/svg"><path d="m256 129.765c4.252-6.434 9.297-12.3 15-17.452v-41.802c0-22.338 18.173-40.511 40.511-40.511h30.562c8.284 0 15-6.716 15-15s-6.716-15-15-15h-30.562c-38.88 0-70.511 31.631-70.511 70.511v41.802c5.703 5.152 10.748 11.018 15 17.452z" fill="#ffffff" data-original="#000000" style="" class=""/><path d="m320.313 334.254c-13.101 13.152-30.196 22.316-49.29 25.508-.005.309-.023.615-.023.925 0 .311.019.617.023.926 32.747 5.475 59.613 28.53 70.532 59.103 28.921-4.675 51.08-29.809 51.08-60.029 0-.011-.001-.022-.001-.033-2.64.232-5.31.357-8.009.357-25.102.001-47.857-10.238-64.312-26.757z" fill="#ffffff" data-original="#000000" style="" class=""/><path d="m170.444 420.717c10.919-30.573 37.785-53.628 70.532-59.103.005-.31.023-.616.023-.926s-.019-.616-.023-.925c-19.093-3.192-36.189-12.357-49.29-25.508-16.455 16.519-39.21 26.758-64.313 26.758-2.699 0-5.369-.125-8.009-.357 0 .011-.001.022-.001.033.001 30.219 22.16 55.352 51.081 60.028z" fill="#ffffff" data-original="#000000" style="" class=""/><path d="m271 179.7c0 .31.019.616.023.925 19.093 3.192 36.189 12.357 49.29 25.508 16.455-16.519 39.21-26.758 64.313-26.758 2.699 0 5.369.125 8.009.357 0-.011.001-.022.001-.033 0-33.535-27.282-60.818-60.817-60.818s-60.819 27.284-60.819 60.819z" fill="#ffffff" data-original="#000000" style="" class=""/><path d="m191.687 206.134c13.101-13.151 30.196-22.316 49.29-25.508.005-.309.023-.615.023-.925 0-33.535-27.283-60.818-60.818-60.818s-60.817 27.283-60.817 60.818c0 .011.001.022.001.033 2.64-.232 5.31-.357 8.009-.357 25.102-.001 47.857 10.238 64.312 26.757z" fill="#ffffff" data-original="#000000" style="" class=""/><path d="m445.444 270.193c0-33.535-27.283-60.817-60.818-60.817-18.703 0-35.454 8.492-46.62 21.816 5.646 11.823 8.812 25.049 8.812 39.002s-3.166 27.178-8.812 39.002c11.165 13.324 27.917 21.816 46.62 21.816 33.535 0 60.818-27.283 60.818-60.819z" fill="#ffffff" data-original="#000000" style="" class=""/><path d="m66.556 270.193c0 33.535 27.283 60.818 60.818 60.818 18.703 0 35.454-8.492 46.62-21.816-5.646-11.824-8.812-25.05-8.812-39.002s3.166-27.178 8.812-39.002c-11.165-13.324-27.917-21.816-46.62-21.816-33.535.001-60.818 27.283-60.818 60.818z" fill="#ffffff" data-original="#000000" style="" class=""/><path d="m256 209.376c-33.535 0-60.818 27.282-60.818 60.817s27.283 60.818 60.818 60.818 60.818-27.283 60.818-60.818-27.283-60.817-60.818-60.817z" fill="#ffffff" data-original="#000000" style="" class=""/><path d="m256 390.364c-33.535 0-60.818 27.282-60.818 60.817s27.283 60.819 60.818 60.819 60.818-27.283 60.818-60.818-27.283-60.818-60.818-60.818z" fill="#ffffff" data-original="#000000" style="" class=""/></g></g></svg>
