<svg height="512pt" viewBox="0 -43 512 512" width="512pt" xmlns="http://www.w3.org/2000/svg"><path d="m453.332031 42.667969h-112v-5.335938c0-20.585937-16.746093-37.332031-37.332031-37.332031h-96c-20.585938 0-37.332031 16.746094-37.332031 37.332031v5.335938h-112c-32.363281 0-58.667969 26.300781-58.667969 58.664062v266.667969c0 32.363281 26.304688 58.667969 58.667969 58.667969h394.664062c32.363281 0 58.667969-26.304688 58.667969-58.667969v-266.667969c0-32.363281-26.304688-58.664062-58.667969-58.664062zm-154.644531 42.664062h-85.355469v-42.664062h85.335938zm-138.6875 64c29.398438 0 53.332031 23.9375 53.332031 53.335938 0 29.394531-23.933593 53.332031-53.332031 53.332031s-53.332031-23.9375-53.332031-53.332031c0-29.398438 23.933593-53.335938 53.332031-53.335938zm96 197.335938c0 8.832031-7.167969 16-16 16h-160c-8.832031 0-16-7.167969-16-16v-10.667969c0-32.363281 26.304688-58.667969 58.667969-58.667969h74.664062c32.363281 0 58.667969 26.304688 58.667969 58.667969zm176 16h-117.332031c-8.832031 0-16-7.167969-16-16s7.167969-16 16-16h117.332031c8.832031 0 16 7.167969 16 16s-7.167969 16-16 16zm0-85.335938h-117.332031c-8.832031 0-16-7.167969-16-16s7.167969-16 16-16h117.332031c8.832031 0 16 7.167969 16 16s-7.167969 16-16 16zm0-85.332031h-117.332031c-8.832031 0-16-7.167969-16-16s7.167969-16 16-16h117.332031c8.832031 0 16 7.167969 16 16s-7.167969 16-16 16zm0 0"/></svg>