<?xml version="1.0"?>
<svg xmlns="http://www.w3.org/2000/svg" xmlns:xlink="http://www.w3.org/1999/xlink" xmlns:svgjs="http://svgjs.com/svgjs" version="1.1" width="512" height="512" x="0" y="0" viewBox="0 0 24 24" style="enable-background:new 0 0 512 512" xml:space="preserve"><g><g xmlns="http://www.w3.org/2000/svg"><path d="m15.464 9c-.277-.479-.891-.643-1.366-.366l-1.098.634v-1.268c0-.552-.447-1-1-1s-1 .448-1 1v1.268l-1.098-.634c-.477-.277-1.09-.113-1.366.366-.276.478-.112 1.09.366 1.366l1.098.634-1.098.634c-.478.276-.642.888-.366 1.366.186.321.521.5.867.5.17 0 .342-.043.499-.134l1.098-.634v1.268c0 .552.447 1 1 1s1-.448 1-1v-1.268l1.098.634c.157.091.329.134.499.134.346 0 .682-.179.867-.5.276-.478.112-1.09-.366-1.366l-1.098-.634 1.098-.634c.478-.276.642-.888.366-1.366z" fill="#000000" data-original="#000000" style=""/><path d="m7.062 9c-.277-.479-.89-.643-1.366-.366l-1.098.634v-1.268c0-.552-.447-1-1-1s-1 .448-1 1v1.268l-1.098-.634c-.478-.277-1.089-.113-1.366.366-.276.478-.112 1.09.366 1.366l1.098.634-1.098.634c-.478.276-.642.888-.366 1.366.186.321.521.5.867.5.17 0 .342-.043.499-.134l1.098-.634v1.268c0 .552.447 1 1 1s1-.448 1-1v-1.268l1.098.634c.157.091.329.134.499.134.346 0 .682-.179.867-.5.276-.478.112-1.09-.366-1.366l-1.098-.634 1.098-.634c.478-.276.642-.888.366-1.366z" fill="#000000" data-original="#000000" style=""/><path d="m17.805 13.5c.17 0 .342-.043.499-.134l1.098-.634v1.268c0 .552.447 1 1 1s1-.448 1-1v-1.268l1.098.634c.157.091.329.134.499.134.346 0 .682-.179.867-.5.276-.478.112-1.09-.366-1.366l-1.098-.634 1.098-.634c.478-.276.642-.888.366-1.366-.277-.479-.89-.643-1.366-.366l-1.098.634v-1.268c0-.552-.447-1-1-1s-1 .448-1 1v1.268l-1.098-.634c-.477-.277-1.09-.113-1.366.366-.276.478-.112 1.09.366 1.366l1.098.634-1.098.634c-.479.276-.643.888-.366 1.366.186.321.522.5.867.5z" fill="#000000" data-original="#000000" style=""/><path d="m6 17h-5c-.553 0-1 .448-1 1s.447 1 1 1h5c.553 0 1-.448 1-1s-.447-1-1-1z" fill="#000000" data-original="#000000" style=""/><path d="m14.5 17h-5c-.553 0-1 .448-1 1s.447 1 1 1h5c.553 0 1-.448 1-1s-.447-1-1-1z" fill="#000000" data-original="#000000" style=""/><path d="m23 17h-5c-.553 0-1 .448-1 1s.447 1 1 1h5c.553 0 1-.448 1-1s-.447-1-1-1z" fill="#000000" data-original="#000000" style=""/></g></g></svg>
