<svg xmlns="http://www.w3.org/2000/svg" xmlns:svgjs="http://svgjs.com/svgjs" xmlns:xlink="http://www.w3.org/1999/xlink" id="Livello_1" x="0" y="0" version="1.1" viewBox="0 0 512 512" xml:space="preserve" style="enable-background:new 0 0 512 512"><style type="text/css">.st0{fill:#1f1f1f}.st1{fill:#ffc511}</style><g><path d="M0,138.7l0,42.7c0,5.9,4.8,10.7,10.7,10.7h42.7c5.9,0,10.7-4.8,10.7-10.7v-42.7C64,97.4,97.4,64,138.7,64 s74.7,33.4,74.7,74.7V224c0,5.9,4.8,10.7,10.7,10.7h42.7c5.9,0,10.7-4.8,10.7-10.7l0-85.3C277.2,62.1,215.2,0.1,138.7,0 C62.1,0.1,0.1,62.1,0,138.7z" class="st0"/><path d="M202,213.3h256c29.5,0,53.3,23.9,53.3,53.3v192c0,29.5-23.9,53.3-53.3,53.3H202c-29.5,0-53.3-23.9-53.3-53.3 v-192C148.7,237.2,172.5,213.3,202,213.3z" class="st1"/><path d="M383.3,330.7c0.1-29.5-23.7-53.4-53.1-53.6s-53.4,23.7-53.6,53.1c-0.1,20.4,11.4,39,29.7,48l-8.2,57.6 c-0.8,5.8,3.2,11.2,9.1,12.1c0.5,0.1,1,0.1,1.5,0.1h42.7c5.9,0.1,10.7-4.7,10.8-10.6c0-0.5,0-1.1-0.1-1.6l-8.2-57.6 C371.8,369.2,383.2,350.8,383.3,330.7z" class="st0"/></g></svg>